<mxfile host="app.diagrams.net" agent="Mozilla/5.0 (Macintosh; Intel Mac OS X 10_15_7) AppleWebKit/537.36 (KHTML, like Gecko) Chrome/129.0.0.0 Safari/537.36" version="24.7.17">
  <diagram id="prtHgNgQTEPvFCAcTncT" name="Page-1">
    <mxGraphModel dx="822" dy="481" grid="1" gridSize="10" guides="1" tooltips="1" connect="1" arrows="1" fold="1" page="1" pageScale="1" pageWidth="827" pageHeight="1169" math="0" shadow="0">
      <root>
        <mxCell id="0" />
        <mxCell id="1" parent="0" />
        <mxCell id="cXSK46v-pou7lRjQmR5n-1" value="Activity Diagram" style="swimlane;childLayout=stackLayout;resizeParent=1;resizeParentMax=0;startSize=20;html=1;fontFamily=Chakra Petch;fontSource=https%3A%2F%2Ffonts.googleapis.com%2Fcss%3Ffamily%3DChakra%2BPetch;" vertex="1" parent="1">
          <mxGeometry x="10" y="40" width="720" height="680" as="geometry" />
        </mxCell>
        <mxCell id="cXSK46v-pou7lRjQmR5n-5" value="User" style="swimlane;startSize=20;html=1;fontFamily=Chakra Petch;fontSource=https%3A%2F%2Ffonts.googleapis.com%2Fcss%3Ffamily%3DChakra%2BPetch;" vertex="1" parent="cXSK46v-pou7lRjQmR5n-1">
          <mxGeometry y="20" width="240" height="660" as="geometry" />
        </mxCell>
        <mxCell id="cXSK46v-pou7lRjQmR5n-6" value="" style="strokeWidth=2;html=1;shape=mxgraph.flowchart.start_2;whiteSpace=wrap;labelBackgroundColor=none;fillColor=#000000;" vertex="1" parent="cXSK46v-pou7lRjQmR5n-5">
          <mxGeometry x="110" y="120" width="20" height="20" as="geometry" />
        </mxCell>
        <mxCell id="cXSK46v-pou7lRjQmR5n-11" value="" style="group" vertex="1" connectable="0" parent="cXSK46v-pou7lRjQmR5n-5">
          <mxGeometry x="100" y="230" width="20" height="20" as="geometry" />
        </mxCell>
        <mxCell id="cXSK46v-pou7lRjQmR5n-7" value="" style="ellipse;shape=doubleEllipse;whiteSpace=wrap;html=1;aspect=fixed;strokeWidth=2;" vertex="1" parent="cXSK46v-pou7lRjQmR5n-11">
          <mxGeometry width="20" height="20" as="geometry" />
        </mxCell>
        <mxCell id="cXSK46v-pou7lRjQmR5n-8" value="" style="strokeWidth=2;html=1;shape=mxgraph.flowchart.start_2;whiteSpace=wrap;labelBackgroundColor=none;fillColor=#000000;" vertex="1" parent="cXSK46v-pou7lRjQmR5n-11">
          <mxGeometry x="5" y="5" width="10" height="10" as="geometry" />
        </mxCell>
        <mxCell id="cXSK46v-pou7lRjQmR5n-2" value="Web Aplication" style="swimlane;startSize=20;html=1;fontFamily=Chakra Petch;fontSource=https%3A%2F%2Ffonts.googleapis.com%2Fcss%3Ffamily%3DChakra%2BPetch;" vertex="1" parent="cXSK46v-pou7lRjQmR5n-1">
          <mxGeometry x="240" y="20" width="240" height="660" as="geometry" />
        </mxCell>
        <mxCell id="cXSK46v-pou7lRjQmR5n-3" value="Services" style="swimlane;startSize=20;html=1;fontFamily=Chakra Petch;fontSource=https%3A%2F%2Ffonts.googleapis.com%2Fcss%3Ffamily%3DChakra%2BPetch;" vertex="1" parent="cXSK46v-pou7lRjQmR5n-1">
          <mxGeometry x="480" y="20" width="240" height="660" as="geometry" />
        </mxCell>
      </root>
    </mxGraphModel>
  </diagram>
</mxfile>
